<svg xmlns="http://www.w3.org/2000/svg" viewBox="0 0 77.16 12.24"><defs><style>.cls-1{opacity:0.85;}.cls-2{fill:#202020;}</style></defs><title>Asset 3</title><g id="Layer_2" data-name="Layer 2"><g id="Layer_1-2" data-name="Layer 1"><g class="cls-1"><path class="cls-2" d="M70.81,4.83l-.77,0a1.19,1.19,0,0,1,.39.34C70.6,5.23,70.68,5,70.81,4.83Z"/><path class="cls-2" d="M69.33,4.73h-.14l-.12.08Z"/><path class="cls-2" d="M68,5a1.34,1.34,0,0,0,.69,0A.93.93,0,0,0,68,5Z"/><path class="cls-2" d="M69.05,5.21c-.08-.15-.12-.3,0-.4h0a2.67,2.67,0,0,1-.4.13A1,1,0,0,1,69.05,5.21Z"/><path class="cls-2" d="M69.05,5.21c.08.13.21.26.25.34A1.66,1.66,0,0,0,69.05,5.21Z"/><path class="cls-2" d="M68.71,8.6c-.13.11-.1-.85-.37-.64a5.05,5.05,0,0,1-1.75.7c-.27.22-.69-.85-1-.63-.63.27-2.24,1.56-1.29,1.5,1.43-.14,2.35-.4,3.63-.58,1-.39,2-.84,3.11-1.19a2.21,2.21,0,0,1,.85.09c-.36-.15-.74-.3-1.15-.44S69.57,8.38,68.71,8.6Z"/><path class="cls-2" d="M76.49,5.41l-.4.32c-.6-.69-1.23-.42-1.86-.15.1.16.19.32.28.48.36-.06.4-.33.08-.54a2.6,2.6,0,0,0,2.14.58C76.68,5.84,76.69,5.54,76.49,5.41Z"/><path class="cls-2" d="M77.14,6l-.41.08s0,.05,0,.08L77.16,6Z"/><path class="cls-2" d="M65.13,5.85c-1.78,0-3.46,0-5.1-.1-.13.19-.22.4-.39.29a1.28,1.28,0,0,0-.38-.34l-.72,0-.25.07h0c-.14.11-.1.26,0,.4a2.13,2.13,0,0,1,.25.34c-.05-.08-.17-.2-.25-.34a1,1,0,0,0-.39-.27,1.42,1.42,0,0,1-.68,0,.86.86,0,0,1,.68,0l.41-.14.11-.08L56.77,5.5l-.35.08c-.39.13-.78.26-1-.21l-.29,0a.7.7,0,0,1,.06.09.53.53,0,0,1-.11-.09l-1.24-.13a8.38,8.38,0,0,1-.82.55l-.28-.48a.9.9,0,0,1-.46.48c.22.28.43.6.62.8.27.48.62-1,.94-.06-.32-.91-.67.54-.94.06-.19-.2-.4-.52-.62-.8A1.16,1.16,0,0,1,51,5.29c.5-.41.93,0,1.3.47a.9.9,0,0,0,.46-.48l.28.48a8.38,8.38,0,0,0,.82-.55L51.35,5C46,4.35,41,4.46,35.46,4A86.29,86.29,0,0,1,26.7,2.76C21,1.64,15.86,2.93,10.13.5,7.93-.35,3.85.11,1.73.21-1.11,1.81.37,5.93.5,6.16,2.25,9.67,3.61,7.72,7.17,9.79,4.74,8.61,9,7.53,11.24,9.93c3.31,3.67,8,.73,12.12,1.67a20.64,20.64,0,0,0,3.32.14c6.33,1.25,12.21-.3,18.86,0,1.77,0,3.32-.9,4.8-1.38,1.09-.17,2.24.3,3.13.3a10.54,10.54,0,0,0,3.72-.77c-1.28.18-2.21.44-3.64.58-.95.06.66-1.23,1.29-1.5.27-.22.7.85,1,.63a5.09,5.09,0,0,0,1.76-.7c.27-.21.23.75.37.64.85-.22,1.52-1.45,2.06-1.19l1.16.44a1.66,1.66,0,0,0,.7.06l.47-.24a3.48,3.48,0,0,1-.21-1c.22.06.54.27.77.32-.23,0-.55-.26-.77-.32a3.48,3.48,0,0,0,.21,1A30.47,30.47,0,0,1,66,7.11a.29.29,0,0,1,0-.09,2.6,2.6,0,0,1-2.13-.57c.32.21.28.47-.08.53-.1-.16-.19-.32-.28-.48.63-.27,1.26-.54,1.85.15l.41-.32c.2.13.19.43.23.69l.42-.08A5.57,5.57,0,0,0,65.13,5.85Z"/><path class="cls-2" d="M57.87,5.83a2.14,2.14,0,0,1,.34-.08l-1.38-.13C57.08,6.09,57.47,6,57.87,5.83Z"/></g></g></g></svg>